{
	"accessors" : 
	[
		{
			"bufferView" : 2,
			"byteOffset" : 0,
			"componentType" : 5126,
			"count" : 312,
			"max" : 
			[
				1,
				0.835527777671814,
				0.03994716703891754,
				1
			],
			"min" : 
			[
				0.9075471758842468,
				0.05284162983298302,
				0.0328759141266346,
				1
			],
			"name" : "accessor_color_m0-PolyPaper21_-42780",
			"type" : "VEC4"
		},
		{
			"bufferView" : 2,
			"byteOffset" : 4992,
			"componentType" : 5126,
			"count" : 216,
			"max" : 
			[
				1,
				1,
				1,
				1
			],
			"min" : 
			[
				1,
				1,
				1,
				1
			],
			"name" : "accessor_color_m1-PolyGlass24_-42786",
			"type" : "VEC4"
		},
		{
			"bufferView" : 2,
			"byteOffset" : 8448,
			"componentType" : 5126,
			"count" : 180,
			"max" : 
			[
				1,
				1,
				1,
				1
			],
			"min" : 
			[
				1,
				1,
				1,
				1
			],
			"name" : "accessor_color_m2-PolyGem25_-42792",
			"type" : "VEC4"
		},
		{
			"bufferView" : 0,
			"byteOffset" : 0,
			"componentType" : 5123,
			"count" : 480,
			"max" : 
			[
				311
			],
			"min" : 
			[
				0
			],
			"name" : "accessor_indices_0_m0-PolyPaper21_-42780",
			"type" : "SCALAR"
		},
		{
			"bufferView" : 0,
			"byteOffset" : 960,
			"componentType" : 5123,
			"count" : 348,
			"max" : 
			[
				215
			],
			"min" : 
			[
				0
			],
			"name" : "accessor_indices_0_m1-PolyGlass24_-42786",
			"type" : "SCALAR"
		},
		{
			"bufferView" : 0,
			"byteOffset" : 1656,
			"componentType" : 5123,
			"count" : 180,
			"max" : 
			[
				179
			],
			"min" : 
			[
				0
			],
			"name" : "accessor_indices_0_m2-PolyGem25_-42792",
			"type" : "SCALAR"
		},
		{
			"bufferView" : 1,
			"byteOffset" : 3744,
			"componentType" : 5126,
			"count" : 312,
			"max" : 
			[
				0.9889206,
				1,
				0.9886899
			],
			"min" : 
			[
				-0.9659262,
				-1,
				-0.9886898
			],
			"name" : "accessor_normal_m0-PolyPaper21_-42780",
			"type" : "VEC3"
		},
		{
			"bufferView" : 1,
			"byteOffset" : 10080,
			"componentType" : 5126,
			"count" : 216,
			"max" : 
			[
				0.9659259,
				1,
				0.9659259
			],
			"min" : 
			[
				-0.9659257999999999,
				-1,
				-0.9659259
			],
			"name" : "accessor_normal_m1-PolyGlass24_-42786",
			"type" : "VEC3"
		},
		{
			"bufferView" : 1,
			"byteOffset" : 14832,
			"componentType" : 5126,
			"count" : 180,
			"max" : 
			[
				0.9092279,
				0.9982696,
				0.9542921
			],
			"min" : 
			[
				-0.9068666,
				-0.9719913999999999,
				-0.9586504
			],
			"name" : "accessor_normal_m2-PolyGem25_-42792",
			"type" : "VEC3"
		},
		{
			"bufferView" : 1,
			"byteOffset" : 0,
			"componentType" : 5126,
			"count" : 312,
			"max" : 
			[
				0.0481922,
				2.650011,
				0.7600003
			],
			"min" : 
			[
				-0.6100862,
				1.429902,
				0.2800002
			],
			"name" : "accessor_position_m0-PolyPaper21_-42780",
			"type" : "VEC3"
		},
		{
			"bufferView" : 1,
			"byteOffset" : 7488,
			"componentType" : 5126,
			"count" : 216,
			"max" : 
			[
				-0.1000558,
				2.370085,
				0.7899701
			],
			"min" : 
			[
				-0.640056,
				1.370085,
				0.24997
			],
			"name" : "accessor_position_m1-PolyGlass24_-42786",
			"type" : "VEC3"
		},
		{
			"bufferView" : 1,
			"byteOffset" : 12672,
			"componentType" : 5126,
			"count" : 180,
			"max" : 
			[
				-0.2009524,
				2.334966,
				0.7381369
			],
			"min" : 
			[
				-0.5803463,
				2.151694,
				0.3019133
			],
			"name" : "accessor_position_m2-PolyGem25_-42792",
			"type" : "VEC3"
		}
	],
	"asset" : 
	{
		"copyright" : "Unknown",
		"generator" : "glTF 1-to-2 Upgrader for Google Blocks",
		"version" : "2.0"
	},
	"bufferViews" : 
	[
		{
			"buffer" : 0,
			"byteLength" : 2016,
			"byteOffset" : 0,
			"name" : "ushortBufferView",
			"target" : 34963
		},
		{
			"buffer" : 0,
			"byteLength" : 16992,
			"byteOffset" : 2016,
			"byteStride" : 12,
			"name" : "vec3BufferView",
			"target" : 34962
		},
		{
			"buffer" : 0,
			"byteLength" : 11328,
			"byteOffset" : 19008,
			"byteStride" : 16,
			"name" : "vec4BufferView",
			"target" : 34962
		}
	],
	"buffers" : 
	[
		{
			"byteLength" : 30336,
			"name" : "model",
			"uri" : "model.bin"
		}
	],
	"materials" : 
	[
		{
			"alphaMode" : "OPAQUE",
			"doubleSided" : false,
			"name" : "BlocksPaper",
			"pbrMetallicRoughness" : 
			{
				"baseColorFactor" : 
				[
					1,
					1,
					1,
					1
				],
				"metallicFactor" : 0,
				"roughnessFactor" : 0.6
			}
		},
		{
			"alphaMode" : "BLEND",
			"doubleSided" : false,
			"name" : "BlocksGlass",
			"pbrMetallicRoughness" : 
			{
				"baseColorFactor" : 
				[
					0.2,
					0.2,
					1,
					0.3
				],
				"metallicFactor" : 1,
				"roughnessFactor" : 0.4
			}
		},
		{
			"alphaMode" : "OPAQUE",
			"doubleSided" : true,
			"name" : "BlocksGem",
			"pbrMetallicRoughness" : 
			{
				"baseColorFactor" : 
				[
					1,
					0.4,
					1,
					1
				],
				"metallicFactor" : 0,
				"roughnessFactor" : 0.1
			}
		}
	],
	"meshes" : 
	[
		{
			"name" : "mesh_m0-PolyPaper21_-42780",
			"primitives" : 
			[
				{
					"attributes" : 
					{
						"COLOR_0" : 0,
						"NORMAL" : 6,
						"POSITION" : 9
					},
					"indices" : 3,
					"material" : 0,
					"mode" : 4
				}
			]
		},
		{
			"name" : "mesh_m1-PolyGlass24_-42786",
			"primitives" : 
			[
				{
					"attributes" : 
					{
						"COLOR_0" : 1,
						"NORMAL" : 7,
						"POSITION" : 10
					},
					"indices" : 4,
					"material" : 1,
					"mode" : 4
				}
			]
		},
		{
			"name" : "mesh_m2-PolyGem25_-42792",
			"primitives" : 
			[
				{
					"attributes" : 
					{
						"COLOR_0" : 2,
						"NORMAL" : 8,
						"POSITION" : 11
					},
					"indices" : 5,
					"material" : 2,
					"mode" : 4
				}
			]
		}
	],
	"nodes" : 
	[
		{
			"matrix" : 
			[
				1,
				0,
				0,
				0,
				0,
				1,
				0,
				0,
				0,
				0,
				1,
				0,
				0,
				0,
				0,
				1
			],
			"mesh" : 0,
			"name" : "node_MeshObject-1311569920-PolyPaper21"
		},
		{
			"matrix" : 
			[
				1,
				0,
				0,
				0,
				0,
				1,
				0,
				0,
				0,
				0,
				1,
				0,
				0,
				0,
				0,
				1
			],
			"mesh" : 2,
			"name" : "node_MeshObject-167411712-PolyGem25"
		},
		{
			"matrix" : 
			[
				1,
				0,
				0,
				0,
				0,
				1,
				0,
				0,
				0,
				0,
				1,
				0,
				0,
				0,
				0,
				1
			],
			"mesh" : 1,
			"name" : "node_MeshObject-739490816-PolyGlass24"
		}
	],
	"scene" : 0,
	"scenes" : 
	[
		{
			"extras" : {},
			"name" : "defaultScene",
			"nodes" : 
			[
				0,
				2,
				1
			]
		}
	]
}