{
  "accessors": [
    {
      "bufferView": 0,
      "byteOffset": 0,
      "componentType": 5123,
      "count": 1512,
      "max": [
        415.0
      ],
      "min": [
        0.0
      ],
      "name": "buffer-0-group-0-mesh-0-indices",
      "type": "SCALAR"
    },
    {
      "bufferView": 1,
      "byteOffset": 0,
      "componentType": 5126,
      "count": 416,
      "max": [
        3.4260189533233643,
        3.1639649868011475,
        3.3784899711608887
      ],
      "min": [
        -3.4260189533233643,
        -1.9999999949504854E-6,
        -4.599664211273193
      ],
      "name": "buffer-0-group-0-mesh-0-position",
      "type": "VEC3"
    },
    {
      "bufferView": 1,
      "byteOffset": 4992,
      "componentType": 5126,
      "count": 416,
      "max": [
        1.0,
        1.0,
        1.0
      ],
      "min": [
        -1.0,
        -1.0,
        -1.0
      ],
      "name": "buffer-0-group-0-mesh-0-normal",
      "type": "VEC3"
    },
    {
      "bufferView": 2,
      "byteOffset": 0,
      "componentType": 5126,
      "count": 416,
      "max": [
        0.740015983581543,
        -0.7482240200042725
      ],
      "min": [
        0.2632859945297241,
        -0.982807993888855
      ],
      "name": "buffer-0-group-0-mesh-0-texcoord",
      "type": "VEC2"
    },
    {
      "bufferView": 0,
      "byteOffset": 3024,
      "componentType": 5123,
      "count": 9984,
      "max": [
        2053.0
      ],
      "min": [
        0.0
      ],
      "name": "buffer-0-group-1-mesh-0-indices",
      "type": "SCALAR"
    },
    {
      "bufferView": 1,
      "byteOffset": 9984,
      "componentType": 5126,
      "count": 2054,
      "max": [
        3.5753390789031982,
        2.283463954925537,
        3.1585309505462646
      ],
      "min": [
        -3.5047190189361572,
        0.9348520040512085,
        -4.7509589195251465
      ],
      "name": "buffer-0-group-1-mesh-0-position",
      "type": "VEC3"
    },
    {
      "bufferView": 1,
      "byteOffset": 34632,
      "componentType": 5126,
      "count": 2054,
      "max": [
        0.8556692004203796,
        0.9999998807907104,
        0.8450528979301453
      ],
      "min": [
        -0.7875424027442932,
        -1.0,
        -0.8344928622245789
      ],
      "name": "buffer-0-group-1-mesh-0-normal",
      "type": "VEC3"
    },
    {
      "bufferView": 2,
      "byteOffset": 3328,
      "componentType": 5126,
      "count": 2054,
      "max": [
        0.0,
        -0.0
      ],
      "min": [
        0.0,
        -0.0
      ],
      "name": "buffer-0-group-1-mesh-0-texcoord",
      "type": "VEC2"
    },
    {
      "bufferView": 0,
      "byteOffset": 22992,
      "componentType": 5123,
      "count": 5496,
      "max": [
        1285.0
      ],
      "min": [
        0.0
      ],
      "name": "buffer-0-group-2-mesh-0-indices",
      "type": "SCALAR"
    },
    {
      "bufferView": 1,
      "byteOffset": 59280,
      "componentType": 5126,
      "count": 1286,
      "max": [
        3.5753390789031982,
        2.283463954925537,
        3.570003032684326
      ],
      "min": [
        -3.6142280101776123,
        0.9136970043182373,
        -4.7509589195251465
      ],
      "name": "buffer-0-group-2-mesh-0-position",
      "type": "VEC3"
    },
    {
      "bufferView": 1,
      "byteOffset": 74712,
      "componentType": 5126,
      "count": 1286,
      "max": [
        0.8556692004203796,
        0.9999222755432129,
        0.8450528979301453
      ],
      "min": [
        -0.8485988974571228,
        -0.9998767971992493,
        -0.8344928622245789
      ],
      "name": "buffer-0-group-2-mesh-0-normal",
      "type": "VEC3"
    },
    {
      "bufferView": 2,
      "byteOffset": 19760,
      "componentType": 5126,
      "count": 1286,
      "max": [
        0.0,
        -0.0
      ],
      "min": [
        0.0,
        -0.0
      ],
      "name": "buffer-0-group-2-mesh-0-texcoord",
      "type": "VEC2"
    }
  ],
  "asset": {
    "generator": "Obj2GltfConverter",
    "version": "2.0"
  },
  "bufferViews": [
    {
      "buffer": 0,
      "byteLength": 33984,
      "byteOffset": 0,
      "name": "buffer-0-bufferview-ushort",
      "target": 34963
    },
    {
      "buffer": 0,
      "byteLength": 90144,
      "byteOffset": 33984,
      "byteStride": 12,
      "name": "buffer-0-bufferview-vec3",
      "target": 34962
    },
    {
      "buffer": 0,
      "byteLength": 30048,
      "byteOffset": 124128,
      "byteStride": 8,
      "name": "buffer-0-bufferview-vec2",
      "target": 34962
    }
  ],
  "buffers": [
    {
      "byteLength": 154176,
      "name": "buffer-0",
      "uri": "Pastrami.bin"
    }
  ],
  "materials": [
    {
      "alphaMode": "OPAQUE",
      "doubleSided": true,
      "name": "Bread02",
      "pbrMetallicRoughness": {
        "baseColorFactor": [
          0.854993,
          0.752942,
          0.533276,
          1.0
        ],
        "metallicFactor": 0.0,
        "roughnessFactor": 0.9362692745505611
      }
    },
    {
      "alphaMode": "OPAQUE",
      "doubleSided": true,
      "name": "Kosher",
      "pbrMetallicRoughness": {
        "baseColorFactor": [
          0.502886,
          0.072272,
          0.084376,
          1.0
        ],
        "metallicFactor": 0.0,
        "roughnessFactor": 0.7448017359246658
      }
    },
    {
      "alphaMode": "OPAQUE",
      "doubleSided": true,
      "name": "Material.004",
      "pbrMetallicRoughness": {
        "baseColorFactor": [
          0.363775,
          0.079227,
          0.06528,
          1.0
        ],
        "metallicFactor": 0.0,
        "roughnessFactor": 0.7448017359246658
      }
    }
  ],
  "meshes": [
    {
      "name": "buffer-0-mesh-0",
      "primitives": [
        {
          "attributes": {
            "POSITION": 1,
            "NORMAL": 2,
            "TEXCOORD_0": 3
          },
          "indices": 0,
          "material": 0,
          "mode": 4
        },
        {
          "attributes": {
            "POSITION": 5,
            "NORMAL": 6,
            "TEXCOORD_0": 7
          },
          "indices": 4,
          "material": 1,
          "mode": 4
        },
        {
          "attributes": {
            "POSITION": 9,
            "NORMAL": 10,
            "TEXCOORD_0": 11
          },
          "indices": 8,
          "material": 2,
          "mode": 4
        }
      ]
    }
  ],
  "nodes": [
    {
      "mesh": 0,
      "name": "node-0"
    }
  ],
  "scenes": [
    {
      "name": "scene-0",
      "nodes": [
        0
      ]
    }
  ]
}