{
  "accessors": [
    {
      "bufferView": 0,
      "byteOffset": 0,
      "componentType": 5123,
      "count": 2880,
      "max": [
        1983.0
      ],
      "min": [
        0.0
      ],
      "name": "buffer-0-group-0-mesh-0-indices",
      "type": "SCALAR"
    },
    {
      "bufferView": 1,
      "byteOffset": 0,
      "componentType": 5126,
      "count": 1984,
      "max": [
        0.06556399911642075,
        3.806596040725708,
        -0.2576009929180145
      ],
      "min": [
        -0.0424019992351532,
        0.7465789914131165,
        -1.8385310173034668
      ],
      "name": "buffer-0-group-0-mesh-0-position",
      "type": "VEC3"
    },
    {
      "bufferView": 1,
      "byteOffset": 23808,
      "componentType": 5126,
      "count": 1984,
      "max": [
        0.9951786994934082,
        0.7037155628204346,
        0.9814801812171936
      ],
      "min": [
        -0.9951786994934082,
        -0.7037155628204346,
        -0.9814710021018982
      ],
      "name": "buffer-0-group-0-mesh-0-normal",
      "type": "VEC3"
    },
    {
      "bufferView": 2,
      "byteOffset": 0,
      "componentType": 5126,
      "count": 1984,
      "max": [
        0.7833250164985657,
        -0.21667499840259552
      ],
      "min": [
        0.21667499840259552,
        -0.7833250164985657
      ],
      "name": "buffer-0-group-0-mesh-0-texcoord",
      "type": "VEC2"
    },
    {
      "bufferView": 0,
      "byteOffset": 5760,
      "componentType": 5123,
      "count": 13386,
      "max": [
        3175.0
      ],
      "min": [
        0.0
      ],
      "name": "buffer-0-group-1-mesh-0-indices",
      "type": "SCALAR"
    },
    {
      "bufferView": 1,
      "byteOffset": 47616,
      "componentType": 5126,
      "count": 3176,
      "max": [
        2.4332730770111084,
        2.0491700172424316,
        2.290992021560669
      ],
      "min": [
        -2.594604015350342,
        -9.999999974752427E-7,
        -4.241596221923828
      ],
      "name": "buffer-0-group-1-mesh-0-position",
      "type": "VEC3"
    },
    {
      "bufferView": 1,
      "byteOffset": 85728,
      "componentType": 5126,
      "count": 3176,
      "max": [
        1.0,
        1.0,
        1.0
      ],
      "min": [
        -1.0,
        -1.0,
        -1.0
      ],
      "name": "buffer-0-group-1-mesh-0-normal",
      "type": "VEC3"
    },
    {
      "bufferView": 2,
      "byteOffset": 15872,
      "componentType": 5126,
      "count": 3176,
      "max": [
        0.8580759763717651,
        -0.14762000739574432
      ],
      "min": [
        0.13784800469875336,
        -0.984952986240387
      ],
      "name": "buffer-0-group-1-mesh-0-texcoord",
      "type": "VEC2"
    },
    {
      "bufferView": 0,
      "byteOffset": 32532,
      "componentType": 5123,
      "count": 5760,
      "max": [
        1239.0
      ],
      "min": [
        0.0
      ],
      "name": "buffer-0-group-2-mesh-0-indices",
      "type": "SCALAR"
    },
    {
      "bufferView": 1,
      "byteOffset": 123840,
      "componentType": 5126,
      "count": 1240,
      "max": [
        0.38567501306533813,
        3.5715410709381104,
        -0.9775329828262329
      ],
      "min": [
        -0.340597003698349,
        2.3989388942718506,
        -1.849485993385315
      ],
      "name": "buffer-0-group-2-mesh-0-position",
      "type": "VEC3"
    },
    {
      "bufferView": 1,
      "byteOffset": 138720,
      "componentType": 5126,
      "count": 1240,
      "max": [
        1.0,
        0.9976372122764587,
        0.9957217574119568
      ],
      "min": [
        -1.0,
        -0.9976372122764587,
        -0.9957217574119568
      ],
      "name": "buffer-0-group-2-mesh-0-normal",
      "type": "VEC3"
    },
    {
      "bufferView": 2,
      "byteOffset": 41280,
      "componentType": 5126,
      "count": 1240,
      "max": [
        0.8685359954833984,
        -0.13146400451660156
      ],
      "min": [
        0.13146400451660156,
        -0.8685359954833984
      ],
      "name": "buffer-0-group-2-mesh-0-texcoord",
      "type": "VEC2"
    }
  ],
  "asset": {
    "generator": "Obj2GltfConverter",
    "version": "2.0"
  },
  "bufferViews": [
    {
      "buffer": 0,
      "byteLength": 44052,
      "byteOffset": 0,
      "name": "buffer-0-bufferview-ushort",
      "target": 34963
    },
    {
      "buffer": 0,
      "byteLength": 153600,
      "byteOffset": 44052,
      "byteStride": 12,
      "name": "buffer-0-bufferview-vec3",
      "target": 34962
    },
    {
      "buffer": 0,
      "byteLength": 51200,
      "byteOffset": 197656,
      "byteStride": 8,
      "name": "buffer-0-bufferview-vec2",
      "target": 34962
    }
  ],
  "buffers": [
    {
      "byteLength": 248856,
      "name": "buffer-0",
      "uri": "revision_4sandwich.bin"
    }
  ],
  "images": [
    {
      "mimeType": "image/png",
      "name": "ToothStick-diffuse-image",
      "uri": "rivision_sandwich/C:/Users/BaDBoY/Desktop/sandwitch/Full Model/New Folder/Uv_toothpick_texture.png"
    },
    {
      "mimeType": "image/png",
      "name": "Material.002-diffuse-image",
      "uri": "rivision_sandwich/C:/Users/BaDBoY/Desktop/sandwitch/Full Model/New Folder/uvTexture.png"
    },
    {
      "mimeType": "image/png",
      "name": "Olive-diffuse-image",
      "uri": "rivision_sandwich/C:/Users/BaDBoY/Desktop/cube/Olive_Texture.png"
    }
  ],
  "materials": [
    {
      "alphaMode": "OPAQUE",
      "doubleSided": true,
      "name": "ToothStick",
      "pbrMetallicRoughness": {
        "baseColorFactor": [
          0.64,
          0.64,
          0.64,
          1.0
        ],
        "baseColorTexture": {
          "index": 0,
          "texCoord": 0
        },
        "metallicFactor": 0.0,
        "roughnessFactor": 0.7493216756721951
      }
    },
    {
      "alphaMode": "OPAQUE",
      "doubleSided": true,
      "name": "Material.002",
      "pbrMetallicRoughness": {
        "baseColorFactor": [
          0.64,
          0.64,
          0.64,
          1.0
        ],
        "baseColorTexture": {
          "index": 1,
          "texCoord": 0
        },
        "metallicFactor": 0.0,
        "roughnessFactor": 0.7493216756721951
      }
    },
    {
      "alphaMode": "OPAQUE",
      "doubleSided": true,
      "name": "Olive",
      "pbrMetallicRoughness": {
        "baseColorFactor": [
          0.64,
          0.64,
          0.64,
          1.0
        ],
        "baseColorTexture": {
          "index": 2,
          "texCoord": 0
        },
        "metallicFactor": 0.0,
        "roughnessFactor": 0.7493216756721951
      }
    }
  ],
  "meshes": [
    {
      "name": "buffer-0-mesh-0",
      "primitives": [
        {
          "attributes": {
            "POSITION": 1,
            "NORMAL": 2,
            "TEXCOORD_0": 3
          },
          "indices": 0,
          "material": 0,
          "mode": 4
        },
        {
          "attributes": {
            "POSITION": 5,
            "NORMAL": 6,
            "TEXCOORD_0": 7
          },
          "indices": 4,
          "material": 1,
          "mode": 4
        },
        {
          "attributes": {
            "POSITION": 9,
            "NORMAL": 10,
            "TEXCOORD_0": 11
          },
          "indices": 8,
          "material": 2,
          "mode": 4
        }
      ]
    }
  ],
  "nodes": [
    {
      "mesh": 0,
      "name": "node-0"
    }
  ],
  "samplers": [
    {
      "name": "ToothStick-diffuse-sampler",
      "wrapS": 10497,
      "wrapT": 10497
    },
    {
      "name": "Material.002-diffuse-sampler",
      "wrapS": 10497,
      "wrapT": 10497
    },
    {
      "name": "Olive-diffuse-sampler",
      "wrapS": 10497,
      "wrapT": 10497
    }
  ],
  "scenes": [
    {
      "name": "scene-0",
      "nodes": [
        0
      ]
    }
  ],
  "textures": [
    {
      "name": "ToothStick-diffuse-texture",
      "sampler": 0,
      "source": 0
    },
    {
      "name": "Material.002-diffuse-texture",
      "sampler": 1,
      "source": 1
    },
    {
      "name": "Olive-diffuse-texture",
      "sampler": 2,
      "source": 2
    }
  ]
}