{
  "accessors": [
    {
      "bufferView": 0,
      "byteOffset": 0,
      "componentType": 5123,
      "count": 1362,
      "max": [
        805.0
      ],
      "min": [
        0.0
      ],
      "name": "buffer-0-group-0-mesh-0-indices",
      "type": "SCALAR"
    },
    {
      "bufferView": 1,
      "byteOffset": 0,
      "componentType": 5126,
      "count": 806,
      "max": [
        0.3215090036392212,
        1.0119229555130005,
        0.33805400133132935
      ],
      "min": [
        -0.3215090036392212,
        0.0,
        -0.33805400133132935
      ],
      "name": "buffer-0-group-0-mesh-0-position",
      "type": "VEC3"
    },
    {
      "bufferView": 1,
      "byteOffset": 9672,
      "componentType": 5126,
      "count": 806,
      "max": [
        1.0,
        1.0,
        0.9710384607315063
      ],
      "min": [
        -1.0,
        -1.0,
        -0.9993692636489868
      ],
      "name": "buffer-0-group-0-mesh-0-normal",
      "type": "VEC3"
    },
    {
      "bufferView": 2,
      "byteOffset": 0,
      "componentType": 5126,
      "count": 806,
      "max": [
        0.0,
        -0.0
      ],
      "min": [
        0.0,
        -0.0
      ],
      "name": "buffer-0-group-0-mesh-0-texcoord",
      "type": "VEC2"
    },
    {
      "bufferView": 0,
      "byteOffset": 2724,
      "componentType": 5123,
      "count": 1014,
      "max": [
        903.0
      ],
      "min": [
        0.0
      ],
      "name": "buffer-0-group-1-mesh-0-indices",
      "type": "SCALAR"
    },
    {
      "bufferView": 1,
      "byteOffset": 19344,
      "componentType": 5126,
      "count": 904,
      "max": [
        0.1754869967699051,
        0.6415449976921082,
        0.276993989944458
      ],
      "min": [
        -0.1754869967699051,
        0.28811201453208923,
        0.17561499774456024
      ],
      "name": "buffer-0-group-1-mesh-0-position",
      "type": "VEC3"
    },
    {
      "bufferView": 1,
      "byteOffset": 30192,
      "componentType": 5126,
      "count": 904,
      "max": [
        0.9072045087814331,
        0.551803469657898,
        0.9877805709838867
      ],
      "min": [
        -0.9072045087814331,
        -0.723116397857666,
        0.3803151845932007
      ],
      "name": "buffer-0-group-1-mesh-0-normal",
      "type": "VEC3"
    },
    {
      "bufferView": 2,
      "byteOffset": 6448,
      "componentType": 5126,
      "count": 904,
      "max": [
        0.9925169944763184,
        -0.026298999786376953
      ],
      "min": [
        0.5002670288085938,
        -1.0032180547714233
      ],
      "name": "buffer-0-group-1-mesh-0-texcoord",
      "type": "VEC2"
    },
    {
      "bufferView": 0,
      "byteOffset": 4752,
      "componentType": 5123,
      "count": 36,
      "max": [
        35.0
      ],
      "min": [
        0.0
      ],
      "name": "buffer-0-group-2-mesh-0-indices",
      "type": "SCALAR"
    },
    {
      "bufferView": 1,
      "byteOffset": 41040,
      "componentType": 5126,
      "count": 36,
      "max": [
        0.03865300118923187,
        0.5498039722442627,
        0.26848098635673523
      ],
      "min": [
        -0.03865300118923187,
        0.44879400730133057,
        0.2509309947490692
      ],
      "name": "buffer-0-group-2-mesh-0-position",
      "type": "VEC3"
    },
    {
      "bufferView": 1,
      "byteOffset": 41472,
      "componentType": 5126,
      "count": 36,
      "max": [
        0.30158883333206177,
        0.03599851205945015,
        0.9869592189788818
      ],
      "min": [
        -0.30158883333206177,
        -0.19699271023273468,
        0.9328655004501343
      ],
      "name": "buffer-0-group-2-mesh-0-normal",
      "type": "VEC3"
    },
    {
      "bufferView": 2,
      "byteOffset": 13680,
      "componentType": 5126,
      "count": 36,
      "max": [
        0.0,
        -0.0
      ],
      "min": [
        0.0,
        -0.0
      ],
      "name": "buffer-0-group-2-mesh-0-texcoord",
      "type": "VEC2"
    },
    {
      "bufferView": 0,
      "byteOffset": 4824,
      "componentType": 5123,
      "count": 744,
      "max": [
        661.0
      ],
      "min": [
        0.0
      ],
      "name": "buffer-0-group-3-mesh-0-indices",
      "type": "SCALAR"
    },
    {
      "bufferView": 1,
      "byteOffset": 41904,
      "componentType": 5126,
      "count": 662,
      "max": [
        0.1754869967699051,
        0.6341860294342041,
        0.276993989944458
      ],
      "min": [
        -0.1754869967699051,
        0.2804970145225525,
        0.17561499774456024
      ],
      "name": "buffer-0-group-3-mesh-0-position",
      "type": "VEC3"
    },
    {
      "bufferView": 1,
      "byteOffset": 49848,
      "componentType": 5126,
      "count": 662,
      "max": [
        0.9077795743942261,
        -0.04350139573216438,
        0.955132246017456
      ],
      "min": [
        -0.9077795743942261,
        -0.7152036428451538,
        0.3842913508415222
      ],
      "name": "buffer-0-group-3-mesh-0-normal",
      "type": "VEC3"
    },
    {
      "bufferView": 2,
      "byteOffset": 13968,
      "componentType": 5126,
      "count": 662,
      "max": [
        0.9925169944763184,
        -0.003367000026628375
      ],
      "min": [
        0.5002670288085938,
        -0.9817910194396973
      ],
      "name": "buffer-0-group-3-mesh-0-texcoord",
      "type": "VEC2"
    }
  ],
  "asset": {
    "generator": "Obj2GltfConverter",
    "version": "2.0"
  },
  "bufferViews": [
    {
      "buffer": 0,
      "byteLength": 6312,
      "byteOffset": 0,
      "name": "buffer-0-bufferview-ushort",
      "target": 34963
    },
    {
      "buffer": 0,
      "byteLength": 57792,
      "byteOffset": 6312,
      "byteStride": 12,
      "name": "buffer-0-bufferview-vec3",
      "target": 34962
    },
    {
      "buffer": 0,
      "byteLength": 19264,
      "byteOffset": 64104,
      "byteStride": 8,
      "name": "buffer-0-bufferview-vec2",
      "target": 34962
    }
  ],
  "buffers": [
    {
      "byteLength": 83368,
      "name": "buffer-0",
      "uri": "Starbucks.bin"
    }
  ],
  "materials": [
    {
      "alphaMode": "OPAQUE",
      "doubleSided": true,
      "name": "Material.001",
      "pbrMetallicRoughness": {
        "baseColorFactor": [
          1.0,
          1.0,
          0.9,
          1.0
        ],
        "metallicFactor": 0.0,
        "roughnessFactor": 0.7448017359246658
      }
    },
    {
      "alphaMode": "OPAQUE",
      "doubleSided": true,
      "name": "Material.002",
      "pbrMetallicRoughness": {
        "baseColorFactor": [
          0.008016,
          0.171233,
          0.072821,
          1.0
        ],
        "metallicFactor": 0.0,
        "roughnessFactor": 0.7448017359246658
      }
    },
    {
      "alphaMode": "OPAQUE",
      "doubleSided": true,
      "name": "Material",
      "pbrMetallicRoughness": {
        "baseColorFactor": [
          0.8,
          0.8,
          0.75,
          1.0
        ],
        "metallicFactor": 0.0,
        "roughnessFactor": 0.7448017359246658
      }
    },
    {
      "alphaMode": "OPAQUE",
      "doubleSided": true,
      "name": "Material_starbuckslogo.png",
      "pbrMetallicRoughness": {
        "baseColorFactor": [
          0.8,
          0.8,
          0.75,
          1.0
        ],
        "metallicFactor": 0.0,
        "roughnessFactor": 0.7448017359246658
      }
    }
  ],
  "meshes": [
    {
      "name": "buffer-0-mesh-0",
      "primitives": [
        {
          "attributes": {
            "POSITION": 1,
            "NORMAL": 2,
            "TEXCOORD_0": 3
          },
          "indices": 0,
          "material": 0,
          "mode": 4
        },
        {
          "attributes": {
            "POSITION": 5,
            "NORMAL": 6,
            "TEXCOORD_0": 7
          },
          "indices": 4,
          "material": 1,
          "mode": 4
        },
        {
          "attributes": {
            "POSITION": 9,
            "NORMAL": 10,
            "TEXCOORD_0": 11
          },
          "indices": 8,
          "material": 2,
          "mode": 4
        },
        {
          "attributes": {
            "POSITION": 13,
            "NORMAL": 14,
            "TEXCOORD_0": 15
          },
          "indices": 12,
          "material": 3,
          "mode": 4
        }
      ]
    }
  ],
  "nodes": [
    {
      "mesh": 0,
      "name": "node-0"
    }
  ],
  "scenes": [
    {
      "name": "scene-0",
      "nodes": [
        0
      ]
    }
  ]
}